<?xml version="1.0" encoding="utf-8"?>
<!-- Generator: Adobe Illustrator 24.0.0, SVG Export Plug-In . SVG Version: 6.00 Build 0)  -->
<svg version="1.1" id="Layer_1" xmlns="http://www.w3.org/2000/svg" xmlns:xlink="http://www.w3.org/1999/xlink" x="0px" y="0px"
	 viewBox="0 0 16 16" style="enable-background:new 0 0 16 16;" xml:space="preserve">
<g>
	<path d="M5.5,12.8C5.6,14.1,6,15.2,8,15.2s2.4-1.2,2.6-2.5C9.8,12.9,8.9,13,8,13C7.1,13,6.2,12.9,5.5,12.8L5.5,12.8z"/>
	<path d="M8,0.8c-3.6,0-5.7,2.2-5.7,5.8c0,3.1,1.9,4.4,3,4.9c0,0,0.6,0.2,2.1,0.2V8C7,7.8,6.6,7.6,6.2,7.2c-0.3-0.3-0.3-0.7,0-0.9
		C6.4,6,6.9,6,7.1,6.3c0.7,0.7,1.1,0.7,1.8,0C9.1,6,9.6,6,9.8,6.3c0.3,0.3,0.3,0.7,0,0.9C9.6,7.5,9.2,7.8,8.7,8v3.6
		c1.6-0.1,2.1-0.2,2.1-0.2c1.1-0.5,3-1.7,3-4.9C13.7,2.9,11.6,0.8,8,0.8L8,0.8z"/>
</g>
</svg>
